<svg xmlns="http://www.w3.org/2000/svg" xmlns:xlink="http://www.w3.org/1999/xlink" width="500" zoomAndPan="magnify" viewBox="0 0 375 374.999991" height="500" preserveAspectRatio="xMidYMid meet" version="1.0"><defs><g/><clipPath id="6ef6f82787"><path d="M 122 124 L 212 124 L 212 184 L 122 184 Z M 122 124 " clip-rule="nonzero"/></clipPath><clipPath id="e4a946fd07"><path d="M 123.847656 188.128906 L 114.753906 132.617188 L 250.941406 110.308594 L 260.035156 165.816406 Z M 123.847656 188.128906 " clip-rule="nonzero"/></clipPath><clipPath id="105b575958"><path d="M 123.847656 188.128906 L 114.753906 132.617188 L 250.941406 110.308594 L 260.035156 165.816406 Z M 123.847656 188.128906 " clip-rule="nonzero"/></clipPath><clipPath id="c735f7008a"><path d="M 218 149 L 259 149 L 259 167 L 218 167 Z M 218 149 " clip-rule="nonzero"/></clipPath><clipPath id="b5b676f15b"><path d="M 123.847656 188.128906 L 114.753906 132.617188 L 250.941406 110.308594 L 260.035156 165.816406 Z M 123.847656 188.128906 " clip-rule="nonzero"/></clipPath><clipPath id="b4fc1b62b4"><path d="M 123.847656 188.128906 L 114.753906 132.617188 L 250.941406 110.308594 L 260.035156 165.816406 Z M 123.847656 188.128906 " clip-rule="nonzero"/></clipPath><clipPath id="c22517dafa"><path d="M 163 116 L 253 116 L 253 175 L 163 175 Z M 163 116 " clip-rule="nonzero"/></clipPath><clipPath id="37357a20f6"><path d="M 123.847656 188.128906 L 114.753906 132.617188 L 250.941406 110.308594 L 260.035156 165.816406 Z M 123.847656 188.128906 " clip-rule="nonzero"/></clipPath><clipPath id="2852ba5f04"><path d="M 123.847656 188.128906 L 114.753906 132.617188 L 250.941406 110.308594 L 260.035156 165.816406 Z M 123.847656 188.128906 " clip-rule="nonzero"/></clipPath><clipPath id="77ce226d01"><path d="M 116 131 L 158 131 L 158 150 L 116 150 Z M 116 131 " clip-rule="nonzero"/></clipPath><clipPath id="ad968a7609"><path d="M 123.847656 188.128906 L 114.753906 132.617188 L 250.941406 110.308594 L 260.035156 165.816406 Z M 123.847656 188.128906 " clip-rule="nonzero"/></clipPath><clipPath id="09f9f7e2da"><path d="M 123.847656 188.128906 L 114.753906 132.617188 L 250.941406 110.308594 L 260.035156 165.816406 Z M 123.847656 188.128906 " clip-rule="nonzero"/></clipPath><clipPath id="04209ce698"><path d="M 124 132 L 138 132 L 138 172 L 124 172 Z M 124 132 " clip-rule="nonzero"/></clipPath><clipPath id="f0f875afec"><path d="M 123.847656 188.128906 L 114.753906 132.617188 L 250.941406 110.308594 L 260.035156 165.816406 Z M 123.847656 188.128906 " clip-rule="nonzero"/></clipPath><clipPath id="c3af6580f2"><path d="M 123.847656 188.128906 L 114.753906 132.617188 L 250.941406 110.308594 L 260.035156 165.816406 Z M 123.847656 188.128906 " clip-rule="nonzero"/></clipPath><clipPath id="f69e745505"><path d="M 140 147 L 152 147 L 152 179 L 140 179 Z M 140 147 " clip-rule="nonzero"/></clipPath><clipPath id="7e281d703d"><path d="M 123.847656 188.128906 L 114.753906 132.617188 L 250.941406 110.308594 L 260.035156 165.816406 Z M 123.847656 188.128906 " clip-rule="nonzero"/></clipPath><clipPath id="08e9472727"><path d="M 123.847656 188.128906 L 114.753906 132.617188 L 250.941406 110.308594 L 260.035156 165.816406 Z M 123.847656 188.128906 " clip-rule="nonzero"/></clipPath><clipPath id="e7be5b7769"><path d="M 170 142 L 182 142 L 182 172 L 170 172 Z M 170 142 " clip-rule="nonzero"/></clipPath><clipPath id="a8f140ed43"><path d="M 123.847656 188.128906 L 114.753906 132.617188 L 250.941406 110.308594 L 260.035156 165.816406 Z M 123.847656 188.128906 " clip-rule="nonzero"/></clipPath><clipPath id="4f5f7b028a"><path d="M 123.847656 188.128906 L 114.753906 132.617188 L 250.941406 110.308594 L 260.035156 165.816406 Z M 123.847656 188.128906 " clip-rule="nonzero"/></clipPath><clipPath id="2f4f326e59"><path d="M 194 138 L 206 138 L 206 171 L 194 171 Z M 194 138 " clip-rule="nonzero"/></clipPath><clipPath id="3c0ae534ea"><path d="M 123.847656 188.128906 L 114.753906 132.617188 L 250.941406 110.308594 L 260.035156 165.816406 Z M 123.847656 188.128906 " clip-rule="nonzero"/></clipPath><clipPath id="3a0264f0b5"><path d="M 123.847656 188.128906 L 114.753906 132.617188 L 250.941406 110.308594 L 260.035156 165.816406 Z M 123.847656 188.128906 " clip-rule="nonzero"/></clipPath><clipPath id="0d7078bad8"><path d="M 180 126 L 193 126 L 193 163 L 180 163 Z M 180 126 " clip-rule="nonzero"/></clipPath><clipPath id="a674894e42"><path d="M 123.847656 188.128906 L 114.753906 132.617188 L 250.941406 110.308594 L 260.035156 165.816406 Z M 123.847656 188.128906 " clip-rule="nonzero"/></clipPath><clipPath id="f1fb5c41a3"><path d="M 123.847656 188.128906 L 114.753906 132.617188 L 250.941406 110.308594 L 260.035156 165.816406 Z M 123.847656 188.128906 " clip-rule="nonzero"/></clipPath><clipPath id="22782bfa69"><path d="M 227 133 L 239 133 L 239 165 L 227 165 Z M 227 133 " clip-rule="nonzero"/></clipPath><clipPath id="856a3c0028"><path d="M 123.847656 188.128906 L 114.753906 132.617188 L 250.941406 110.308594 L 260.035156 165.816406 Z M 123.847656 188.128906 " clip-rule="nonzero"/></clipPath><clipPath id="b852853674"><path d="M 123.847656 188.128906 L 114.753906 132.617188 L 250.941406 110.308594 L 260.035156 165.816406 Z M 123.847656 188.128906 " clip-rule="nonzero"/></clipPath><clipPath id="9bd2fc2366"><path d="M 237 117 L 250 117 L 250 154 L 237 154 Z M 237 117 " clip-rule="nonzero"/></clipPath><clipPath id="dddfae4387"><path d="M 123.847656 188.128906 L 114.753906 132.617188 L 250.941406 110.308594 L 260.035156 165.816406 Z M 123.847656 188.128906 " clip-rule="nonzero"/></clipPath><clipPath id="86331a20a8"><path d="M 123.847656 188.128906 L 114.753906 132.617188 L 250.941406 110.308594 L 260.035156 165.816406 Z M 123.847656 188.128906 " clip-rule="nonzero"/></clipPath><clipPath id="a3e6ac466b"><path d="M 162 159 L 171 159 L 171 170 L 162 170 Z M 162 159 " clip-rule="nonzero"/></clipPath><clipPath id="cbff6dab85"><path d="M 123.847656 188.128906 L 114.753906 132.617188 L 250.941406 110.308594 L 260.035156 165.816406 Z M 123.847656 188.128906 " clip-rule="nonzero"/></clipPath><clipPath id="671b5ad079"><path d="M 123.847656 188.128906 L 114.753906 132.617188 L 250.941406 110.308594 L 260.035156 165.816406 Z M 123.847656 188.128906 " clip-rule="nonzero"/></clipPath><clipPath id="b5acd79576"><path d="M 205 128 L 214 128 L 214 141 L 205 141 Z M 205 128 " clip-rule="nonzero"/></clipPath><clipPath id="8f0f7d09de"><path d="M 123.847656 188.128906 L 114.753906 132.617188 L 250.941406 110.308594 L 260.035156 165.816406 Z M 123.847656 188.128906 " clip-rule="nonzero"/></clipPath><clipPath id="1863d98395"><path d="M 123.847656 188.128906 L 114.753906 132.617188 L 250.941406 110.308594 L 260.035156 165.816406 Z M 123.847656 188.128906 " clip-rule="nonzero"/></clipPath><clipPath id="caf02db61e"><path d="M 217 147 L 224 147 L 224 157 L 217 157 Z M 217 147 " clip-rule="nonzero"/></clipPath><clipPath id="4afc7a81cf"><path d="M 123.847656 188.128906 L 114.753906 132.617188 L 250.941406 110.308594 L 260.035156 165.816406 Z M 123.847656 188.128906 " clip-rule="nonzero"/></clipPath><clipPath id="786fcb6a5a"><path d="M 123.847656 188.128906 L 114.753906 132.617188 L 250.941406 110.308594 L 260.035156 165.816406 Z M 123.847656 188.128906 " clip-rule="nonzero"/></clipPath></defs><g clip-path="url(#6ef6f82787)"><g clip-path="url(#e4a946fd07)"><g clip-path="url(#105b575958)"><path fill="#2a66ff" d="M 211.886719 131.878906 C 211.945312 132.246094 211.949219 132.617188 211.890625 132.988281 C 211.832031 133.359375 211.71875 133.710938 211.550781 134.046875 C 211.378906 134.382812 211.160156 134.679688 210.894531 134.945312 C 210.628906 135.210938 210.332031 135.429688 209.996094 135.597656 C 209.660156 135.765625 209.308594 135.878906 208.9375 135.9375 C 208.566406 135.992188 208.195312 135.988281 207.824219 135.925781 C 207.453125 135.867188 207.101562 135.746094 206.769531 135.574219 C 206.4375 135.398438 206.140625 135.179688 205.878906 134.910156 C 204.085938 133.214844 191 129.121094 179.664062 132.878906 C 171.035156 135.734375 165.753906 142.378906 163.960938 152.632812 C 161.878906 164.53125 156.90625 173.195312 149.222656 178.378906 C 138.378906 185.6875 126.195312 183.179688 125.691406 183.070312 C 125.242188 182.964844 124.832031 182.777344 124.457031 182.511719 C 124.082031 182.242188 123.773438 181.914062 123.527344 181.527344 C 123.28125 181.136719 123.117188 180.714844 123.035156 180.261719 C 122.953125 179.808594 122.960938 179.359375 123.058594 178.90625 C 123.152344 178.457031 123.332031 178.042969 123.589844 177.660156 C 123.847656 177.28125 124.167969 176.960938 124.550781 176.707031 C 124.933594 176.453125 125.351562 176.277344 125.800781 176.1875 C 126.253906 176.09375 126.703125 176.089844 127.15625 176.175781 C 127.289062 176.203125 137.050781 178.121094 145.34375 172.488281 C 151.359375 168.402344 155.273438 161.316406 157.003906 151.417969 C 159.902344 134.867188 170.078125 128.433594 178.109375 125.96875 C 184 124.152344 191.070312 123.792969 198.007812 124.960938 C 202.648438 125.734375 208.480469 127.472656 210.925781 129.988281 C 211.445312 130.519531 211.765625 131.148438 211.886719 131.878906 Z M 211.886719 131.878906 " fill-opacity="1" fill-rule="nonzero"/></g></g></g><g clip-path="url(#c735f7008a)"><g clip-path="url(#b5b676f15b)"><g clip-path="url(#b4fc1b62b4)"><path fill="#2a66ff" d="M 258.597656 159.480469 C 258.667969 159.902344 258.65625 160.328125 258.570312 160.75 C 258.484375 161.171875 258.328125 161.5625 258.097656 161.925781 C 257.867188 162.289062 257.582031 162.601562 257.238281 162.859375 C 256.894531 163.121094 256.515625 163.308594 256.101562 163.429688 C 244.453125 166.832031 234.953125 167.152344 227.898438 164.375 C 222.078125 162.085938 218.617188 156.753906 218.40625 156.34375 L 220.910156 151.417969 C 220.910156 151.417969 222.445312 149.757812 222.414062 149.703125 C 222.464844 149.785156 227.296875 156.746094 231.136719 158.054688 C 234.980469 159.367188 242.054688 160.1875 254.125 156.664062 C 254.363281 156.59375 254.609375 156.550781 254.859375 156.53125 C 255.105469 156.515625 255.355469 156.523438 255.601562 156.558594 C 255.847656 156.59375 256.089844 156.652344 256.324219 156.738281 C 256.558594 156.824219 256.78125 156.933594 256.992188 157.066406 C 257.203125 157.203125 257.398438 157.355469 257.578125 157.53125 C 257.757812 157.703125 257.914062 157.894531 258.050781 158.105469 C 258.191406 158.3125 258.304688 158.53125 258.398438 158.765625 C 258.488281 158.996094 258.554688 159.234375 258.59375 159.480469 Z M 258.597656 159.480469 " fill-opacity="1" fill-rule="nonzero"/></g></g></g><g clip-path="url(#c22517dafa)"><g clip-path="url(#37357a20f6)"><g clip-path="url(#2852ba5f04)"><path fill="#8c52ff" d="M 252.863281 120.4375 C 252.910156 120.726562 252.921875 121.011719 252.898438 121.300781 C 252.875 121.589844 252.816406 121.871094 252.722656 122.148438 C 252.628906 122.421875 252.503906 122.679688 252.34375 122.925781 C 252.1875 123.167969 252.003906 123.386719 251.789062 123.585938 C 251.578125 123.785156 251.34375 123.953125 251.089844 124.09375 C 250.835938 124.234375 250.570312 124.339844 250.289062 124.414062 C 250.007812 124.488281 249.722656 124.527344 249.433594 124.53125 C 249.144531 124.535156 248.859375 124.503906 248.574219 124.4375 C 248.398438 124.398438 238.71875 122.277344 230.3125 127.710938 C 224.214844 131.652344 220.128906 138.648438 218.167969 148.507812 C 214.910156 164.886719 205.34375 170.824219 197.902344 172.964844 C 185.332031 176.515625 166.890625 171.109375 163.691406 166.734375 C 162.230469 164.734375 165.332031 159.535156 166.074219 160.179688 C 167.296875 161.234375 185.0625 169.261719 195.976562 166.167969 C 204.054688 163.878906 209.191406 157.46875 211.242188 147.113281 C 213.59375 135.265625 218.753906 126.71875 226.566406 121.707031 C 237.570312 114.65625 249.6875 117.4375 250.199219 117.558594 C 250.539062 117.640625 250.859375 117.769531 251.160156 117.945312 C 251.460938 118.121094 251.730469 118.335938 251.96875 118.59375 C 252.207031 118.851562 252.398438 119.136719 252.554688 119.449219 C 252.707031 119.765625 252.808594 120.09375 252.863281 120.4375 Z M 252.863281 120.4375 " fill-opacity="1" fill-rule="nonzero"/></g></g></g><g clip-path="url(#77ce226d01)"><g clip-path="url(#ad968a7609)"><g clip-path="url(#09f9f7e2da)"><path fill="#8c52ff" d="M 157.261719 141.597656 L 155.054688 149.234375 C 154.984375 149.484375 154.820312 149.625 154.5625 149.652344 C 154.304688 149.679688 154.117188 149.578125 153.996094 149.347656 L 152.519531 146.570312 C 151.378906 144.414062 149.730469 142.753906 147.582031 141.597656 C 146.871094 141.222656 146.140625 140.890625 145.386719 140.605469 C 141.136719 138.984375 133.484375 137.746094 121.183594 141.035156 C 120.734375 141.15625 120.277344 141.183594 119.8125 141.125 C 119.347656 141.0625 118.914062 140.914062 118.511719 140.679688 C 118.105469 140.445312 117.761719 140.144531 117.476562 139.773438 C 117.191406 139.402344 116.988281 138.988281 116.867188 138.539062 C 116.75 138.085938 116.71875 137.628906 116.78125 137.164062 C 116.839844 136.699219 116.988281 136.265625 117.222656 135.863281 C 117.457031 135.457031 117.757812 135.113281 118.128906 134.828125 C 118.5 134.542969 118.914062 134.339844 119.363281 134.21875 C 144.753906 127.433594 154.796875 137.515625 156.988281 140.265625 C 157.308594 140.660156 157.398438 141.105469 157.261719 141.597656 Z M 157.261719 141.597656 " fill-opacity="1" fill-rule="nonzero"/></g></g></g><g clip-path="url(#04209ce698)"><g clip-path="url(#f0f875afec)"><g clip-path="url(#c3af6580f2)"><path fill="#8c52ff" d="M 131.953125 135.339844 L 137.164062 167.140625 C 137.238281 167.605469 137.222656 168.0625 137.117188 168.519531 C 137.011719 168.972656 136.820312 169.390625 136.546875 169.769531 C 136.273438 170.148438 135.941406 170.464844 135.542969 170.710938 C 135.144531 170.957031 134.714844 171.117188 134.253906 171.191406 C 133.792969 171.269531 133.335938 171.253906 132.878906 171.144531 C 132.421875 171.039062 132.007812 170.847656 131.625 170.578125 C 131.246094 170.304688 130.933594 169.96875 130.6875 169.570312 C 130.441406 169.171875 130.277344 168.742188 130.203125 168.28125 L 124.992188 136.480469 C 124.917969 136.019531 124.933594 135.5625 125.039062 135.105469 C 125.148438 134.652344 125.335938 134.234375 125.609375 133.855469 C 125.882812 133.472656 126.21875 133.160156 126.617188 132.914062 C 127.011719 132.667969 127.441406 132.507812 127.90625 132.429688 C 128.367188 132.355469 128.824219 132.371094 129.28125 132.476562 C 129.734375 132.585938 130.152344 132.773438 130.53125 133.046875 C 130.914062 133.320312 131.226562 133.65625 131.472656 134.054688 C 131.71875 134.449219 131.878906 134.878906 131.953125 135.339844 Z M 131.953125 135.339844 " fill-opacity="1" fill-rule="nonzero"/></g></g></g><g clip-path="url(#f69e745505)"><g clip-path="url(#7e281d703d)"><g clip-path="url(#08e9472727)"><path fill="#2a66ff" d="M 147.167969 150.722656 L 151.085938 174.636719 C 151.160156 175.097656 151.144531 175.554688 151.039062 176.011719 C 150.929688 176.46875 150.742188 176.882812 150.46875 177.265625 C 150.195312 177.644531 149.859375 177.957031 149.460938 178.203125 C 149.066406 178.449219 148.636719 178.609375 148.175781 178.6875 C 147.710938 178.761719 147.253906 178.746094 146.796875 178.640625 C 146.34375 178.535156 145.925781 178.34375 145.546875 178.070312 C 145.167969 177.796875 144.851562 177.460938 144.605469 177.066406 C 144.359375 176.667969 144.199219 176.238281 144.125 175.777344 L 140.207031 151.863281 C 140.128906 151.398438 140.144531 150.941406 140.253906 150.488281 C 140.359375 150.03125 140.550781 149.613281 140.820312 149.234375 C 141.09375 148.855469 141.429688 148.539062 141.828125 148.292969 C 142.226562 148.046875 142.65625 147.886719 143.117188 147.8125 C 143.578125 147.734375 144.035156 147.75 144.492188 147.859375 C 144.945312 147.964844 145.363281 148.15625 145.742188 148.425781 C 146.125 148.699219 146.4375 149.035156 146.683594 149.433594 C 146.929688 149.832031 147.089844 150.261719 147.167969 150.722656 Z M 147.167969 150.722656 " fill-opacity="1" fill-rule="nonzero"/></g></g></g><g clip-path="url(#e7be5b7769)"><g clip-path="url(#a8f140ed43)"><g clip-path="url(#4f5f7b028a)"><path fill="#8c52ff" d="M 181.472656 167.378906 C 181.554688 167.839844 181.542969 168.300781 181.441406 168.757812 C 181.339844 169.210938 181.152344 169.632812 180.886719 170.015625 C 180.617188 170.398438 180.285156 170.714844 179.890625 170.964844 C 179.496094 171.214844 179.066406 171.378906 178.605469 171.460938 C 178.144531 171.542969 177.6875 171.53125 177.230469 171.429688 C 176.773438 171.328125 176.355469 171.140625 175.972656 170.871094 C 175.589844 170.601562 175.273438 170.269531 175.023438 169.875 C 174.769531 169.480469 174.605469 169.054688 174.523438 168.59375 L 170.53125 146.972656 C 170.433594 146.507812 170.429688 146.042969 170.523438 145.578125 C 170.613281 145.113281 170.792969 144.683594 171.054688 144.289062 C 171.320312 143.898438 171.648438 143.570312 172.046875 143.308594 C 172.441406 143.050781 172.871094 142.875 173.339844 142.789062 C 173.804688 142.703125 174.269531 142.710938 174.730469 142.8125 C 175.195312 142.910156 175.621094 143.097656 176.007812 143.371094 C 176.394531 143.640625 176.714844 143.976562 176.96875 144.378906 C 177.222656 144.78125 177.386719 145.214844 177.460938 145.683594 L 181.464844 167.316406 Z M 181.472656 167.378906 " fill-opacity="1" fill-rule="nonzero"/></g></g></g><g clip-path="url(#2f4f326e59)"><g clip-path="url(#3c0ae534ea)"><g clip-path="url(#3a0264f0b5)"><path fill="#8c52ff" d="M 201.210938 141.867188 L 205.28125 166.707031 C 205.355469 167.167969 205.339844 167.628906 205.234375 168.082031 C 205.125 168.539062 204.9375 168.957031 204.664062 169.335938 C 204.390625 169.714844 204.054688 170.027344 203.660156 170.277344 C 203.261719 170.523438 202.832031 170.683594 202.371094 170.757812 C 201.910156 170.835938 201.449219 170.820312 200.996094 170.710938 C 200.539062 170.605469 200.121094 170.414062 199.742188 170.140625 C 199.363281 169.871094 199.050781 169.535156 198.800781 169.136719 C 198.554688 168.738281 198.394531 168.308594 198.320312 167.847656 L 194.25 143.007812 C 194.175781 142.546875 194.191406 142.089844 194.296875 141.632812 C 194.402344 141.175781 194.59375 140.761719 194.867188 140.378906 C 195.140625 140 195.472656 139.6875 195.871094 139.441406 C 196.269531 139.195312 196.699219 139.035156 197.160156 138.957031 C 197.621094 138.882812 198.082031 138.898438 198.535156 139.003906 C 198.992188 139.109375 199.410156 139.300781 199.789062 139.574219 C 200.167969 139.847656 200.480469 140.183594 200.726562 140.578125 C 200.972656 140.976562 201.136719 141.40625 201.210938 141.867188 Z M 201.210938 141.867188 " fill-opacity="1" fill-rule="nonzero"/></g></g></g><g clip-path="url(#0d7078bad8)"><g clip-path="url(#a674894e42)"><g clip-path="url(#f1fb5c41a3)"><path fill="#2a66ff" d="M 187.445312 129.246094 L 192.179688 158.128906 C 192.253906 158.589844 192.238281 159.050781 192.132812 159.503906 C 192.023438 159.960938 191.835938 160.378906 191.5625 160.757812 C 191.289062 161.136719 190.953125 161.449219 190.558594 161.699219 C 190.160156 161.945312 189.730469 162.105469 189.269531 162.179688 C 188.808594 162.257812 188.347656 162.242188 187.894531 162.132812 C 187.4375 162.027344 187.019531 161.835938 186.640625 161.5625 C 186.261719 161.292969 185.949219 160.957031 185.703125 160.558594 C 185.453125 160.160156 185.292969 159.730469 185.21875 159.269531 L 180.484375 130.386719 C 180.410156 129.925781 180.425781 129.464844 180.53125 129.011719 C 180.640625 128.554688 180.828125 128.136719 181.101562 127.757812 C 181.375 127.378906 181.710938 127.066406 182.109375 126.816406 C 182.503906 126.570312 182.933594 126.410156 183.398438 126.335938 C 183.859375 126.257812 184.316406 126.273438 184.773438 126.382812 C 185.226562 126.488281 185.644531 126.679688 186.023438 126.953125 C 186.40625 127.222656 186.71875 127.558594 186.964844 127.957031 C 187.210938 128.355469 187.371094 128.785156 187.445312 129.246094 Z M 187.445312 129.246094 " fill-opacity="1" fill-rule="nonzero"/></g></g></g><g clip-path="url(#22782bfa69)"><g clip-path="url(#856a3c0028)"><g clip-path="url(#b852853674)"><path fill="#2a66ff" d="M 234.40625 136.925781 L 238.320312 160.828125 C 238.394531 161.289062 238.378906 161.746094 238.273438 162.203125 C 238.167969 162.65625 237.976562 163.074219 237.703125 163.453125 C 237.429688 163.835938 237.09375 164.148438 236.699219 164.394531 C 236.300781 164.640625 235.871094 164.800781 235.410156 164.878906 C 234.949219 164.953125 234.488281 164.9375 234.035156 164.832031 C 233.578125 164.722656 233.160156 164.535156 232.78125 164.261719 C 232.402344 163.988281 232.089844 163.652344 231.84375 163.253906 C 231.59375 162.859375 231.433594 162.429688 231.359375 161.96875 L 227.441406 138.050781 C 227.367188 137.589844 227.382812 137.132812 227.488281 136.675781 C 227.59375 136.222656 227.785156 135.804688 228.058594 135.425781 C 228.332031 135.042969 228.664062 134.730469 229.0625 134.484375 C 229.460938 134.238281 229.890625 134.078125 230.351562 134 C 230.8125 133.925781 231.269531 133.941406 231.726562 134.046875 C 232.183594 134.15625 232.601562 134.34375 232.980469 134.617188 C 233.359375 134.890625 233.671875 135.226562 233.917969 135.625 C 234.164062 136.019531 234.328125 136.449219 234.402344 136.910156 Z M 234.40625 136.925781 " fill-opacity="1" fill-rule="nonzero"/></g></g></g><g clip-path="url(#9bd2fc2366)"><g clip-path="url(#dddfae4387)"><g clip-path="url(#86331a20a8)"><path fill="#8c52ff" d="M 244.398438 120.457031 L 249.128906 149.34375 C 249.207031 149.804688 249.191406 150.261719 249.082031 150.71875 C 248.976562 151.171875 248.789062 151.589844 248.515625 151.972656 C 248.242188 152.351562 247.90625 152.664062 247.507812 152.910156 C 247.109375 153.15625 246.683594 153.316406 246.21875 153.394531 C 245.757812 153.46875 245.300781 153.453125 244.84375 153.347656 C 244.390625 153.238281 243.972656 153.050781 243.59375 152.777344 C 243.210938 152.503906 242.898438 152.167969 242.652344 151.773438 C 242.40625 151.375 242.246094 150.945312 242.167969 150.484375 L 237.4375 121.597656 C 237.363281 121.136719 237.378906 120.679688 237.484375 120.222656 C 237.589844 119.769531 237.78125 119.351562 238.054688 118.96875 C 238.328125 118.589844 238.664062 118.277344 239.058594 118.03125 C 239.457031 117.785156 239.886719 117.625 240.347656 117.546875 C 240.808594 117.472656 241.269531 117.488281 241.722656 117.59375 C 242.179688 117.703125 242.597656 117.890625 242.976562 118.164062 C 243.355469 118.4375 243.667969 118.773438 243.914062 119.167969 C 244.160156 119.566406 244.324219 119.996094 244.398438 120.457031 Z M 244.398438 120.457031 " fill-opacity="1" fill-rule="nonzero"/></g></g></g><g clip-path="url(#a3e6ac466b)"><g clip-path="url(#cbff6dab85)"><g clip-path="url(#671b5ad079)"><path fill="#8c52ff" d="M 166.640625 169.058594 C 166.640625 169.058594 163.933594 167.503906 162.582031 166.046875 C 162.398438 165.84375 162.347656 165.613281 162.433594 165.355469 L 164.296875 159.710938 C 164.320312 159.628906 164.367188 159.558594 164.425781 159.496094 C 164.488281 159.433594 164.558594 159.386719 164.640625 159.359375 C 164.722656 159.332031 164.808594 159.320312 164.894531 159.332031 C 164.980469 159.34375 165.058594 159.375 165.128906 159.421875 C 166.785156 160.550781 168.539062 161.5 170.386719 162.269531 Z M 166.640625 169.058594 " fill-opacity="1" fill-rule="nonzero"/></g></g></g><g clip-path="url(#b5acd79576)"><g clip-path="url(#8f0f7d09de)"><g clip-path="url(#1863d98395)"><path fill="#2a66ff" d="M 205.179688 134.4375 C 205.179688 134.4375 207.722656 136.238281 208.527344 137.46875 C 209.179688 138.464844 210.011719 139.714844 210.445312 140.363281 C 210.511719 140.453125 210.601562 140.492188 210.710938 140.484375 C 210.820312 140.476562 210.902344 140.421875 210.953125 140.324219 L 213.710938 134.25 C 213.84375 133.957031 213.828125 133.667969 213.667969 133.390625 C 212.972656 132.195312 210.863281 128.886719 208.605469 128.546875 Z M 205.179688 134.4375 " fill-opacity="1" fill-rule="nonzero"/></g></g></g><g clip-path="url(#caf02db61e)"><g clip-path="url(#4afc7a81cf)"><g clip-path="url(#786fcb6a5a)"><path fill="#2a66ff" d="M 218.152344 155.933594 L 218.40625 156.347656 L 223.574219 151.339844 C 223.574219 151.339844 222.039062 149.109375 221.5 148.367188 L 221.164062 147.898438 C 221.058594 147.753906 220.917969 147.691406 220.738281 147.71875 C 220.558594 147.742188 220.4375 147.839844 220.378906 148.007812 L 217.910156 154.722656 C 217.789062 155.050781 217.761719 155.375 218.152344 155.933594 Z M 218.152344 155.933594 " fill-opacity="1" fill-rule="nonzero"/></g></g></g><g fill="#5271ff" fill-opacity="1"><g transform="translate(139.400234, 223.4531)"><g><path d="M 25.921875 -13.546875 L 25.921875 -32.140625 L 32.609375 -32.140625 L 32.609375 0.5625 L 9.75 -18.46875 L 9.75 0 L 3.0625 0 L 3.0625 -32.75 Z M 25.921875 -13.546875 "/></g></g></g><g fill="#5271ff" fill-opacity="1"><g transform="translate(175.075078, 223.4531)"><g><path d="M 34.90625 -17.5625 L 34.90625 -16.5625 C 34.90625 -14.207031 34.472656 -11.992188 33.609375 -9.921875 C 32.742188 -7.847656 31.546875 -6.019531 30.015625 -4.4375 C 28.492188 -2.863281 26.726562 -1.632812 24.71875 -0.75 C 22.707031 0.125 20.550781 0.5625 18.25 0.5625 C 15.945312 0.5625 13.796875 0.128906 11.796875 -0.734375 C 9.796875 -1.597656 8.039062 -2.789062 6.53125 -4.3125 C 5.019531 -5.832031 3.835938 -7.59375 2.984375 -9.59375 C 2.140625 -11.59375 1.71875 -13.742188 1.71875 -16.046875 C 1.71875 -18.347656 2.140625 -20.503906 2.984375 -22.515625 C 3.835938 -24.535156 5.019531 -26.304688 6.53125 -27.828125 C 8.039062 -29.347656 9.796875 -30.539062 11.796875 -31.40625 C 13.796875 -32.269531 15.929688 -32.703125 18.203125 -32.703125 C 21.191406 -32.703125 23.941406 -31.988281 26.453125 -30.5625 C 28.972656 -29.144531 30.957031 -27.253906 32.40625 -24.890625 L 27.046875 -21.015625 C 26.210938 -22.585938 25.007812 -23.863281 23.4375 -24.84375 C 21.875 -25.820312 20.144531 -26.3125 18.25 -26.3125 C 16.46875 -26.3125 14.84375 -25.851562 13.375 -24.9375 C 11.90625 -24.019531 10.738281 -22.78125 9.875 -21.21875 C 9.007812 -19.664062 8.578125 -17.941406 8.578125 -16.046875 C 8.578125 -14.179688 9.007812 -12.46875 9.875 -10.90625 C 10.738281 -9.351562 11.90625 -8.125 13.375 -7.21875 C 14.84375 -6.3125 16.46875 -5.859375 18.25 -5.859375 C 20.207031 -5.859375 22 -6.347656 23.625 -7.328125 C 25.25 -8.304688 26.421875 -9.734375 27.140625 -11.609375 L 18.421875 -11.609375 L 18.421875 -17.5625 Z M 34.90625 -17.5625 "/></g></g></g><g fill="#5271ff" fill-opacity="1"><g transform="translate(211.612685, 223.4531)"><g><path d="M 10.78125 -14.234375 C 7.988281 -14.554688 5.757812 -15.535156 4.09375 -17.171875 C 2.425781 -18.804688 1.59375 -20.890625 1.59375 -23.421875 C 1.59375 -24.773438 1.875 -26.019531 2.4375 -27.15625 C 3 -28.289062 3.738281 -29.273438 4.65625 -30.109375 C 5.582031 -30.941406 6.597656 -31.582031 7.703125 -32.03125 C 8.804688 -32.476562 9.921875 -32.703125 11.046875 -32.703125 C 12.648438 -32.703125 14.1875 -32.378906 15.65625 -31.734375 C 17.125 -31.085938 18.476562 -30.03125 19.71875 -28.5625 L 14.453125 -24.71875 C 14.023438 -25.175781 13.492188 -25.554688 12.859375 -25.859375 C 12.222656 -26.160156 11.617188 -26.3125 11.046875 -26.3125 C 10.148438 -26.3125 9.425781 -26.0625 8.875 -25.5625 C 8.332031 -25.0625 8.0625 -24.363281 8.0625 -23.46875 C 8.0625 -22.75 8.382812 -22.09375 9.03125 -21.5 C 9.6875 -20.914062 10.859375 -20.566406 12.546875 -20.453125 C 14.390625 -20.335938 16.066406 -19.863281 17.578125 -19.03125 C 19.085938 -18.195312 20.296875 -17.03125 21.203125 -15.53125 C 22.109375 -14.03125 22.5625 -12.25 22.5625 -10.1875 C 22.5625 -8.113281 22.050781 -6.265625 21.03125 -4.640625 C 20.007812 -3.015625 18.671875 -1.738281 17.015625 -0.8125 C 15.359375 0.101562 13.582031 0.5625 11.6875 0.5625 C 9.851562 0.5625 8.039062 0.195312 6.25 -0.53125 C 4.46875 -1.269531 2.816406 -2.472656 1.296875 -4.140625 L 6.8125 -8.203125 C 7.5625 -7.273438 8.320312 -6.648438 9.09375 -6.328125 C 9.875 -6.015625 10.738281 -5.859375 11.6875 -5.859375 C 12.78125 -5.859375 13.707031 -6.238281 14.46875 -7 C 15.226562 -7.769531 15.609375 -8.671875 15.609375 -9.703125 C 15.609375 -10.992188 15.191406 -12.03125 14.359375 -12.8125 C 13.523438 -13.59375 12.332031 -14.066406 10.78125 -14.234375 Z M 10.78125 -14.234375 "/></g></g></g><g fill="#5271ff" fill-opacity="1"><g transform="translate(147.999053, 245.413844)"><g><path d="M 7 -1.9375 L 2.8125 -1.9375 L 2.015625 0 L -0.109375 0 L 3.90625 -9.015625 L 5.96875 -9.015625 L 9.984375 0 L 7.796875 0 Z M 6.34375 -3.515625 L 4.921875 -6.96875 L 3.484375 -3.515625 Z M 6.34375 -3.515625 "/></g></g></g><g fill="#5271ff" fill-opacity="1"><g transform="translate(158.666044, 245.413844)"><g><path d="M 9.328125 -9.015625 L 9.328125 0 L 7.625 0 L 3.125 -5.46875 L 3.125 0 L 1.0625 0 L 1.0625 -9.015625 L 2.796875 -9.015625 L 7.28125 -3.546875 L 7.28125 -9.015625 Z M 9.328125 -9.015625 "/></g></g></g><g fill="#5271ff" fill-opacity="1"><g transform="translate(169.873449, 245.413844)"><g><path d="M 7 -1.9375 L 2.8125 -1.9375 L 2.015625 0 L -0.109375 0 L 3.90625 -9.015625 L 5.96875 -9.015625 L 9.984375 0 L 7.796875 0 Z M 6.34375 -3.515625 L 4.921875 -6.96875 L 3.484375 -3.515625 Z M 6.34375 -3.515625 "/></g></g></g><g fill="#5271ff" fill-opacity="1"><g transform="translate(180.540441, 245.413844)"><g><path d="M 1.0625 -9.015625 L 3.15625 -9.015625 L 3.15625 -1.703125 L 7.671875 -1.703125 L 7.671875 0 L 1.0625 0 Z M 1.0625 -9.015625 "/></g></g></g><g fill="#5271ff" fill-opacity="1"><g transform="translate(189.123005, 245.413844)"><g><path d="M 5.390625 -3.1875 L 5.390625 0 L 3.3125 0 L 3.3125 -3.21875 L -0.1875 -9.015625 L 2.03125 -9.015625 L 4.4375 -5.015625 L 6.84375 -9.015625 L 8.890625 -9.015625 Z M 5.390625 -3.1875 "/></g></g></g><g fill="#5271ff" fill-opacity="1"><g transform="translate(198.631986, 245.413844)"><g><path d="M 8.375 -1.703125 L 8.375 0 L 0.484375 0 L 0.484375 -1.359375 L 5.4375 -7.3125 L 0.59375 -7.3125 L 0.59375 -9.015625 L 8.171875 -9.015625 L 8.171875 -7.65625 L 3.25 -1.703125 Z M 8.375 -1.703125 "/></g></g></g><g fill="#5271ff" fill-opacity="1"><g transform="translate(208.076639, 245.413844)"><g><path d="M 8.046875 -1.671875 L 8.046875 0 L 1.0625 0 L 1.0625 -9.015625 L 7.875 -9.015625 L 7.875 -7.34375 L 3.140625 -7.34375 L 3.140625 -5.375 L 7.328125 -5.375 L 7.328125 -3.765625 L 3.140625 -3.765625 L 3.140625 -1.671875 Z M 8.046875 -1.671875 "/></g></g></g><g fill="#5271ff" fill-opacity="1"><g transform="translate(217.521289, 245.413844)"><g><path d="M 6.8125 0 L 5.078125 -2.515625 L 3.15625 -2.515625 L 3.15625 0 L 1.0625 0 L 1.0625 -9.015625 L 4.96875 -9.015625 C 5.769531 -9.015625 6.460938 -8.878906 7.046875 -8.609375 C 7.640625 -8.347656 8.09375 -7.972656 8.40625 -7.484375 C 8.726562 -6.992188 8.890625 -6.414062 8.890625 -5.75 C 8.890625 -5.070312 8.726562 -4.488281 8.40625 -4 C 8.082031 -3.519531 7.625 -3.148438 7.03125 -2.890625 L 9.046875 0 Z M 6.765625 -5.75 C 6.765625 -6.25 6.601562 -6.632812 6.28125 -6.90625 C 5.957031 -7.175781 5.484375 -7.3125 4.859375 -7.3125 L 3.15625 -7.3125 L 3.15625 -4.171875 L 4.859375 -4.171875 C 5.484375 -4.171875 5.957031 -4.304688 6.28125 -4.578125 C 6.601562 -4.859375 6.765625 -5.25 6.765625 -5.75 Z M 6.765625 -5.75 "/></g></g></g></svg>